<svg width="18" height="20" viewBox="0 0 18 20" fill="none" xmlns="http://www.w3.org/2000/svg">
<path d="M0 12.4582V7.78518C0 7.2329 0.447715 6.78518 1 6.78518H4.56869C4.84676 6.78518 5.11227 6.6694 5.30149 6.46564L10.5011 0.866085C11.1195 0.200074 12.2339 0.637672 12.2339 1.54654V18.6969C12.2339 19.6057 11.1195 20.0433 10.5011 19.3773L5.30149 13.7778C5.11227 13.574 4.84676 13.4582 4.56869 13.4582H1C0.447715 13.4582 0 13.0105 0 12.4582Z" fill="white"/>
<path d="M16.6825 10.1217C16.6825 8.63811 16.0164 7.77907 15.4131 7.30533C15.2753 7.19705 15.3765 6.78518 15.5518 6.78518C15.5641 6.78518 15.575 6.78631 15.5869 6.78967C15.7898 6.84717 17.7947 7.48199 17.7947 10.1217C17.7947 12.7614 15.7898 13.3962 15.5869 13.4537C15.575 13.4571 15.5641 13.4582 15.5518 13.4582C15.3765 13.4582 15.2753 13.0463 15.4131 12.9381C16.0164 12.4643 16.6825 11.6053 16.6825 10.1217Z" fill="white"/>
</svg>
