<svg width="23" height="20" viewBox="0 0 23 20" fill="none" xmlns="http://www.w3.org/2000/svg">
<path d="M0.609863 12.627V7.95401C0.609863 7.40172 1.05758 6.95401 1.60986 6.95401H5.17856C5.45662 6.95401 5.72214 6.83823 5.91135 6.63446L11.1109 1.03491C11.7294 0.368897 12.8437 0.806495 12.8437 1.71536V18.8657C12.8437 19.7746 11.7294 20.2122 11.1109 19.5462L5.91135 13.9466C5.72214 13.7428 5.45662 13.627 5.17855 13.627H1.60986C1.05758 13.627 0.609863 13.1793 0.609863 12.627Z" fill="white"/>
<path d="M17.2924 10.2905C17.2924 8.80693 16.6262 7.94789 16.023 7.47415C15.8851 7.36587 15.9864 6.95401 16.1617 6.95401C16.174 6.95401 16.1849 6.95514 16.1968 6.9585C16.3997 7.016 18.4046 7.65082 18.4046 10.2905C18.4046 12.9302 16.3997 13.565 16.1968 13.6225C16.1849 13.6259 16.174 13.627 16.1617 13.627C15.9864 13.627 15.8851 13.2152 16.023 13.1069C16.6262 12.6331 17.2924 11.7741 17.2924 10.2905Z" fill="white"/>
<path d="M22.8533 10.2905C22.8533 5.30293 17.6774 2.53357 15.7662 1.68099C15.4294 1.53076 15.0681 1.78108 15.0681 2.14984C15.0681 2.36511 15.1946 2.55858 15.3891 2.65079C16.7209 3.28207 21.7411 5.9496 21.7411 10.2905C21.7411 14.6314 16.7209 17.299 15.3891 17.9302C15.1946 18.0224 15.0681 18.2159 15.0681 18.4312C15.0681 18.7999 15.4294 19.0503 15.7662 18.9C17.6774 18.0475 22.8533 15.2781 22.8533 10.2905Z" fill="white"/>
</svg>
