<svg width="600" height="600" viewBox="0 0 600 600" fill="none" xmlns="http://www.w3.org/2000/svg">
<rect width="600" height="600" fill="#1E1E1E"/>
<path d="M87.7585 373V348.284L91.8778 347.929C97.1809 347.503 101.466 345.491 104.733 341.892C108 338.246 110.438 332.446 112.048 324.491C113.705 316.49 114.771 305.741 115.244 292.247L117.659 227.545H216.381V373H186.48V252.19H146.21L143.938 302.83C143.18 319.117 141.239 332.422 138.114 342.744C135.036 353.066 130.112 360.689 123.341 365.614C116.617 370.538 107.408 373 95.7131 373H87.7585ZM257.432 374.989V349.989H265.315C269.245 349.989 272.418 349.515 274.832 348.568C277.247 347.574 279.165 346.13 280.585 344.236C282.053 342.295 283.284 339.88 284.278 336.991L286.054 332.233L233.213 227.545H265.031L299.264 299.136L327.886 227.545H359.278L309.136 344.449C306.722 349.847 303.857 354.866 300.543 359.506C297.276 364.146 293.085 367.886 287.972 370.727C282.858 373.568 276.324 374.989 268.369 374.989H257.432ZM381.81 227.545H411.711V274.42C411.711 280.008 412.682 284.506 414.623 287.915C416.564 291.277 419.571 293.715 423.643 295.23C427.762 296.698 433.041 297.432 439.481 297.432C441.754 297.432 444.429 297.361 447.506 297.219C450.584 297.029 453.756 296.769 457.023 296.438C460.338 296.106 463.463 295.704 466.398 295.23C469.334 294.757 471.772 294.212 473.714 293.597V317.886C471.725 318.549 469.239 319.141 466.256 319.662C463.321 320.135 460.219 320.562 456.952 320.94C453.685 321.272 450.513 321.532 447.435 321.722C444.358 321.911 441.706 322.006 439.481 322.006C427.786 322.006 417.606 320.348 408.941 317.034C400.276 313.672 393.576 308.488 388.842 301.48C384.154 294.473 381.81 285.453 381.81 274.42V227.545ZM468.387 227.545H498.43V373H468.387V227.545Z" fill="white"/>
</svg>
